<svg xmlns="http://www.w3.org/2000/svg" width="350" height="316">
	<path
		d="M91.2 1.2c-.7.7-1.2 2.5-1.2 4a941 941 0 0 0 23.6 58.1l25 58.4 1.4 3.3H80.2l-23.6-20-23.7-20H17.5C3.3 85 2 85.2 1 87c-.5 1-1 2.7-1 3.8 0 1 5.2 16.2 11.5 33.7A572 572 0 0 1 23 158c0 1-5.2 16.1-11.5 33.6A553.6 553.6 0 0 0 0 225.3c0 1 .5 2.7 1 3.8 1 1.8 2.3 1.9 16.5 1.9h15.4l23.7-20 23.7-20H140l-1.3 3.3-25 58.4a941 941 0 0 0-23.7 58c0 5.1.7 5.3 24 5.3h21.7l48.8-62.4 48.9-62.4 38.5-.4c42.1-.5 44.3-.8 56.7-6.8 8.3-4 14.4-9.7 18.2-16.8 4-7.5 4-10.9 0-18.4-5.3-10-14.5-16.6-28.8-20.9-7-2-9.8-2.2-46-2.6l-38.7-.5-48.8-62.4L135.7 0h-21.6c-15.6 0-22 .3-22.9 1.2M105 11.6c0 .3 11.3 26.8 25 58.9 13.8 32 25 59.5 25 60.8 0 5.7.3 5.7-41.3 5.7H75.5l-23.7-20-23.7-20h-6.5c-3.7 0-6.6.3-6.6.8 0 .4 4.7 13.8 10.5 29.7 5.8 16 10.5 29.7 10.5 30.5 0 .9-4.7 14.6-10.5 30.5-5.8 16-10.5 29.3-10.5 29.7 0 .5 3 .8 6.6.8h6.5l23.7-20 23.7-20h38.2c41.6 0 41.3 0 41.3 5.6 0 1.4-11.3 28.8-25 60.9-13.8 32-25 58.6-25 59 0 .2 5.4.5 11.9.5h11.9l48.2-61.8 49.2-62.7c.6-.6 16.6-1.2 42.1-1.6 38.7-.5 41.6-.7 47.7-2.7a38.6 38.6 0 0 0 19.2-13.3c1.5-2.3 2.8-4.5 2.8-4.9 0-2-6.3-9.5-10.4-12.5-10.5-7.4-18.4-8.5-63.4-8.5-33.3 0-36.3-.1-38-1.8-1-1-23.2-29.3-49.5-63L128.8 11H117c-6.5 0-11.9.3-11.9.6"
		fill="#040404" fill-rule="evenodd" />
</svg>