<svg xmlns="http://www.w3.org/2000/svg" width="488" height="386">
	<path
		d="M139 45v45H55v44h15v241H23v11h85v-11H81v-8h206v-11h-16V190H81v-35h41v-11H81v-10h306v10H156v11h231v35h-97v123h69v37h-4c-3.8 0-4 .2-4 3v3h-29v11h29v8H119v11h346v-11h-29v-25h-9v-98h9v-35h-85v35h8v50h-58V200h86v7h11v-73h15V90h-85V0H139v45m57.7-9.6a1157 1157 0 0 0 35.4 24.8c.8.3 2.4.1 3.6-.3 2-.7 65-45.4 67.8-48 .5-.5-28-.9-70-.9h-70.7l33.9 24.4M150 58.5c0 23.5.4 42.5.8 42.3 1.4-.5 56.1-43.3 56.1-43.8 0-.4-26-19.2-50-36.3l-6.9-4.8v42.6m138.5-22a410.6 410.6 0 0 0-27 20.4c0 .8 12.4 10.7 46.8 37.5l8.7 6.8V59c0-23.2-.3-42-.8-42a799 799 0 0 0-27.7 19.5m-99.1 48.7-27.1 21.2 35.9.3h71.6l35.6-.3-27.3-21.3-27.3-21.4-2.7 2a23.3 23.3 0 0 1-13.4 5.4c-5.5 0-8.2-.8-13.4-4.3a36.6 36.6 0 0 0-4.5-2.9c-.2 0-12.5 9.6-27.4 21.3M66 112.5V124h336v-23h-74v17H139v-17H66v11.5m67 37v5.5h12v-11h-12v5.5M81 278v78h6V200h-6v78m17 0v78h145V200H98v78m156 0v78h6V200h-6v78m-89 0v67h11V211h-11v67m197-43.5v6.5h63v-13h-63v6.5m8 58V333h46v-81h-46v40.5m7-21v5.5h32v-11h-32v5.5m-7 75.5v3h46v-6h-46v3m-73 14.5v5.6l7.8-.3 7.7-.3.3-5.3.3-5.2H297v5.5m65 6.5v7h63v-14h-63v7M0 380.5v5.5h12v-11H0v5.5m476 0v5.5h12v-11h-12v5.5"
		fill="#040404" fill-rule="evenodd" />
</svg>