<svg xmlns="http://www.w3.org/2000/svg" width="446" height="512">
	<path
		d="M193.2 1.4a219.4 219.4 0 0 0-125 61 217.3 217.3 0 0 0-67 146.2c-.7 11.9-.6 14.9.6 17.2 2.4 4.6 7.8 5.4 11.8 1.8 2.4-2.2 2.6-3.3 3.6-18.3a203 203 0 0 1 28-91.8 208.6 208.6 0 0 1 129-96.1c31-7.8 67-7.8 98 0a208 208 0 0 1 154 161.9c3.8 19.3 4 32.3 4 158.8v122.8l-20-.2-20-.3-21.5-40.9a2015.3 2015.3 0 0 1-21.4-41.5c0-.3 2-1.7 4.6-3 6-3.2 11.9-10 14.4-16.8 2-5.4 2-6.7 1.8-118.1l-.3-112.7-2.4-5a36.3 36.3 0 0 0-15.6-15.6c-4.5-2.1-6.7-2.5-20.5-2.9l-15.4-.5-2.2-10c-3.2-15.2-3.2-15.3-7-19.5-4.8-5.3-9.8-6.3-29-5.8-13.3.3-15.5.5-17.3 2.2-2.8 2.6-3 8.8-.1 11.6 1.8 1.8 3.3 2 17.9 2 11.5 0 16 .3 16.8 1.3.9 1 4.3 15.3 4.3 17.7 0 .6-26.8 1-74 1s-74-.4-74-1c0-2.4 3.4-16.6 4.3-17.8.7-1 10-1.2 40.3-1.2h39.3l2-2.6c3.4-4.3 2-10.2-2.6-12.3a756 756 0 0 0-82.8 0 20 20 0 0 0-10.8 8.4c-.6 1.1-2.3 7.4-3.7 14l-2.6 12-15.5.5c-13.7.4-16 .8-20.4 3a36.3 36.3 0 0 0-15.6 15.5l-2.4 5-.3 112.7c-.2 111.4-.2 112.7 1.8 118.1A33.6 33.6 0 0 0 94.7 379c2.5 1.3 4.6 2.7 4.6 3 0 .4-9.7 19.1-21.4 41.6l-21.7 40.8-20 .3-20.1.2V252l-2.6-2c-4.7-3.7-10.3-2.2-12.4 3.3C-.3 257-.3 466.9 1 472c.5 2 2.2 4.6 3.6 6 2.5 2.3 3 2.4 22.5 2.7 11 .2 19.9.5 19.9.8 0 .2-2.5 5.2-5.6 11-5.8 11.2-6.2 13.7-2.7 17.6 2 2.4 8.7 2.4 11 0 1-1 5-8 8.8-15.5l7-13.7h315l7 13.7c3.9 7.5 7.8 14.5 8.8 15.5 2.3 2.4 8.8 2.4 11 0 3.5-3.9 3-6.4-2.7-17.6l-5.6-11c0-.3 9-.6 20-.8l20.2-.3 2.8-3.2c1.8-2 3-4.8 3.5-7.5.3-2.4.5-63.7.2-136.3-.4-144.2-.1-137.5-6.3-163.5A222.3 222.3 0 0 0 253.2 1.5c-14.8-2-46.4-2-60 0m-85.4 122.4a18.3 18.3 0 0 0-12 9.2c-1.4 3-1.6 7.6-1.6 31.6v28.2h258l-.2-29.3-.3-29.4-2.7-3.5c-1.5-2-4.4-4.4-6.5-5.4-3.7-1.8-8.2-2-117.3-2-67.4-.2-115.1.2-117.4.7m52.3 12.7a20.9 20.9 0 0 0-11.7 18.6 22 22 0 0 0 12.2 21.9c4 2.2 4.2 2.2 62.6 2.2s58.5 0 62.6-2.2a22 22 0 0 0 12.2-22 21.1 21.1 0 0 0-11.7-18.5l-5.3-2.8H165.6l-5.5 2.8m6 15.2a6.5 6.5 0 0 0 .7 10c2.6 2 3.6 2 56.4 2s53.8 0 56.4-2a6.6 6.6 0 0 0 .6-10c-2-2-3.3-2-57-2s-55 0-57 2m-72 91.5v34.5h258v-69h-258v34.5m0 80.5c0 23.1.3 30.8 1.4 33.3 1.7 4.2 6.6 8.3 11.4 9.7 5 1.4 227.3 1.4 232.4 0 4.8-1.4 9.7-5.5 11.4-9.7 1-2.5 1.4-10.2 1.4-33.3v-30h-258v30m33.4-17.6a28.2 28.2 0 0 0-15.4 24.1c0 5.7 2.9 13 7 17.7 5.4 6.3 11.6 9 20 9 11.7 0 19.9-5.3 24.8-16a20 20 0 0 0 2-12c-.3-4-1.4-8.4-2.6-10.8a31.2 31.2 0 0 0-15-13.2c-6.5-2-15-1.5-20.8 1.2m169.8-1.1a32.8 32.8 0 0 0-14.4 13 31.8 31.8 0 0 0-2.6 10.8c-.4 5.6 0 7.5 2 12a25.3 25.3 0 0 0 24.7 16 24 24 0 0 0 20-8.9c4.2-4.6 7-12 7-17.7a28 28 0 0 0-15.3-24.1 34 34 0 0 0-21.4-1.1m-164 16.3c-7.8 5.5-6 16.2 3.5 19.5 6.3 2.1 13.3-3.7 13.3-11.2 0-4.7-5.6-9.9-10.7-9.9-2.1 0-5 .7-6 1.6m166 1.8c-5.4 5.5-4 13.6 3.2 17 4.2 2 8.2 1.1 12.2-2.6 6.7-6.3 1.6-17.8-8-17.8-3.1 0-4.6.7-7.3 3.4m-187 68.6-4 8h229.3l-4.1-8-4.1-8h-213l-4.1 8m-16.3 31-4.2 8h262l-4.1-8-4.1-8H100.6l-4.3 8m-17.3 33-4.8 9h298l-4.8-9-4.7-9h-279l-4.7 9"
		fill="#040404" fill-rule="evenodd" />
</svg>