<svg xmlns="http://www.w3.org/2000/svg" width="163" height="129" viewBox="0 0 163 129">
  <rect width="100%" height="100%" fill="none"/>
  <path d="M.1 28.9.2 72v14.3h2.4c2.7 0 3.3.1 3.7.8.2.5.2.9.2 4.7-.2 7.4-.1 16.7 0 18 .3 1.5.8 2.4 1.6 2.8.5.2 1 .3 2.8.4a13.8 13.7 0 0 1 3 .4c1 .4 2 1.3 2.8 3a27 26.7 0 0 0 6.2 8c4.1 3.4 8.1 4.9 12.7 4.7 2.6-.1 4.6-.6 7-1.8a21.8 21.6 0 0 0 10-10.2c1.2-2.3 1.5-2.6 3.5-3.2 2.7-.7 11.7-1 25.4-.9 12 .1 15.3.3 18 1.1 1.5.5 2 1 3 2.8a23 22.7 0 0 0 4.5 6.2c4.3 4.2 9 6.2 14.1 6 4.8-.2 9-2.2 12.7-5.9 2-2 3-3.4 4.5-6.3 1-2 1.2-2.2 2-2.6 1.7-1 4.6-1.3 15.2-1.3h7.7v-1.5l-.7-13.3-.8-15.2a110 109 0 0 0-5.4-28.5c-1-3-4.8-13-6-15.6-3.6-8.7-6.4-11.2-13.4-12.2-3-.4-8.2-.5-24.7-.5H95.9V0H0l.1 28.9m4 4.7.2 35c.3 9.5.7 12.5 2 13.6.3.3.6.4 1.7.5 1.5.2 1.9.4 2.4 1.5l.4.8v4.7c0 2.6 0 6-.2 7.4l-.2 5.9c0 3.4.1 4.5 1 5.4.3.4.5.5 1.3.5 1.9.1 2.4-.4 3.5-3.4a17 16.8 0 0 1 4.7-7c5-4.8 12.6-6.8 18.8-5a20.8 20.6 0 0 1 8.3 5c2.4 2.2 4 4.4 5 7 .6 1.8 1.2 2.2 3.6 2.7 2.5.6 4 .6 19.5.7h15.5V4H4.2v29.7m5.1-7.1c-1.4.8-1.4 2.9.1 3.5 1 .4 2 .2 2.6-.7a2 2 0 0 0-.8-2.8c-.7-.4-1.2-.4-1.8 0m8.1 0c-2 1-1 3.9 1.1 3.7 1-.1 1.7-.7 1.8-1.7.2-1.7-1.4-2.8-2.9-2m8.2 0c-2 1-1.1 3.9 1 3.7 1.1-.1 1.8-.7 1.9-1.7.2-1.7-1.4-2.8-3-2m8.2 0c-2 1-1 3.9 1.1 3.7 1-.1 1.7-.7 1.8-1.7.2-1.7-1.4-2.8-2.9-2m8.2 0c-2 1-1.1 3.9 1.1 3.7 1-.1 1.7-.7 1.8-1.7.2-1.7-1.4-2.8-3-2m8.2 0c-2 1-1 3.9 1.2 3.7 1-.1 1.6-.7 1.7-1.8.1-.9-.1-1.4-.8-1.8-.7-.5-1.4-.5-2-.1m8 0a2.5 2.5 0 0 0-1 1.7 2 2 0 0 0 1 1.7 2 2 0 0 0 3-1.7 1.9 1.9 0 0 0-.9-1.6c-.6-.5-1.3-.5-2-.1m8.1 0c-.5.2-1 1.2-1 1.8 0 .9 1 2 2 2s2-1 2-2a2 2 0 0 0-1.2-1.9 1.9 1.9 0 0 0-1.8 0m8.2 0a2.2 2.2 0 0 0-1 2.2c.1.7.4 1.1 1 1.4 1 .4 2 .2 2.6-.7a2 2 0 0 0-.8-2.9 1.9 1.9 0 0 0-1.8 0m8.2 0c-.7.4-1.2 1.5-1.1 2.2.2.7.5 1.1 1.1 1.4 1 .4 2 .2 2.6-.7a2 2 0 0 0-.9-2.9c-.7-.3-1.1-.3-1.7 0m13.1 35.8c0 20 .2 33.3.3 35.4.3 6 .7 9 1.4 10.3.4.7.7 1 1.5 1 1 0 1.6-.9 2.6-3.2a21 20.8 0 0 1 8.8-10 18.5 18.5 0 0 1 17.6-1.2 22 22 0 0 1 10.7 11.4c.5 1.4 1.8 2.2 4.2 2.7 1.6.3 14 .2 15.2 0 2.3-.5 2.3-.7 2.3-4.5 0-5.4-.8-8.2-2.8-10-1.2-1.1-2.2-1.4-5.2-1.4-2.9 0-3.8-.2-4.7-1-1.3-1.2-1.7-2.7-1.8-6.5-.2-5.9.5-7.3 4-8l3-.5c2.2-.3 3.5-.8 3.8-1.3.3-.4.3-.4 0-.8-.5-.7-2.5-1.4-6.3-2a53 52.5 0 0 1-8.7-2.3 76.5 75.8 0 0 1-9.8-4.2c-4.2-2.1-4.8-2.6-5.7-4.3-1.5-3.2-1.9-7.5-1.9-22.6v-9H95.9v32M130.7 31c-1.3.2-2 1.1-2.5 3-.2 1-.2 1.8-.2 5.8 0 6.6.4 13.8.9 16.3a7 7 0 0 0 1.7 3.7c.6.7 1.1 1 3.5 2.2a51.3 50.8 0 0 0 11.5 4.5 13.4 13.3 0 0 0 3.8.5c3.2 0 4.2-.5 4.8-2.4a20.5 20.3 0 0 0-.2-6.5 60.8 60.8 0 0 0-9.3-21.7 17 17 0 0 0-4.2-4c-.9-.5-2.6-.8-6.5-1.3a8.4 8.4 0 0 0-3.3 0m-22.4 5.2c-1 .2-2.5 1-3.4 1.7a7.8 7.7 0 0 0-2.1 3.7 94 94 0 0 0-.2 8.3c0 5 0 7.8.2 8.4a8 8 0 0 0 2 3.6 8 8 0 0 0 3.6 1.8c1 .2 3.5.2 4.6 0a7 7 0 0 0 5.3-4.7c.3-.9.3-1.7.3-9 0-7.9 0-8.3-.3-9.2a6.9 6.8 0 0 0-5-4.5 17.2 17 0 0 0-5-.1m.1 2.8a4.4 4.3 0 0 0-2.8 2.8 77 77 0 0 0-.2 8.1c0 8.5 0 8.5 1 9.7a5 5 0 0 0 1.3 1c.7.3 1 .4 3 .4 2.5 0 3-.2 4-1.4 1.2-1.2 1.2-.8 1.2-9.7 0-8.9 0-8.4-1.2-9.7-1-1-2-1.4-4-1.4l-2.3.2m-99 19.7c-.6.3-1.2 1.1-1.2 1.7 0 .4.4 1 .9 1.6.3.3.6.3 1.2.3.7 0 .8 0 1.3-.5 1-1 .8-2.3-.4-3.1-.7-.4-1.2-.4-1.9 0m8.2 0c-.6.3-1.1 1.1-1.1 1.7 0 1 1 2 2 2s2-1 2-2-1-2-2-2l-1 .3m8.2 0c-.3.1-.6.5-.8.8-1.2 2.2 2.1 4.1 3.5 2a2 2 0 0 0-.8-2.8 1.8 1.8 0 0 0-1.9 0m8.2 0c-.6.3-1.1 1.1-1.1 1.7 0 1 1 2 2 2s2-1 2-1.9c0-1.6-1.6-2.6-3-1.8m8.3 0a2 2 0 0 0-1.1 1.7c0 1 1 2 2 2 2.1 0 2.8-3 .8-3.8-.7-.3-1-.3-1.7 0m8.2 0c-.6.3-1.2 1.3-1.2 1.8 0 1 1 2 2 2 2.2 0 2.9-3 .9-3.8a1.8 1.8 0 0 0-1.7 0m8 .1c-.5.4-1 1.2-1 1.7 0 1 1 2 2 2 2.1 0 2.8-3 .8-3.8-.7-.3-1.1-.3-1.7.1m8.1 0a2 2 0 0 0-1 1.7 2.2 2.2 0 0 0 2 2c1 0 2-1 2-2 0-.8-1.1-2-2-2a2 2 0 0 0-1 .3m8.2 0a2 2 0 0 0-1 1.7 2 2 0 0 0 1 1.7c1 .6 2 .3 2.7-.7.5-1 .1-2.2-1-2.8-.6-.3-1.1-.3-1.7.1m8.2 0a2 2 0 0 0-1.1 1.7 2 2 0 0 0 1 1.7c1 .6 2 .3 2.7-.7.6-1 .2-2.2-1-2.8-.6-.3-1-.3-1.6.1M151.3 80a4.5 4.4 0 0 0-1.7 1.3c-.9.9-1.1 1.2-1.3 2a2.6 2.6 0 0 0-.1 1.6c.6 2.4 3.4 4.2 6.3 4 2.4-.2 2.8-.7 3.1-3.6.3-3-.3-4.7-2.2-5.3a8.6 8.5 0 0 0-4 0M17.6 83a2 2 0 0 0-1.2 1.7 2 2 0 0 0 1 1.7 2 2 0 0 0 2.8-.6c1-1.7-.8-3.6-2.6-2.8m8.1 0c-.6.4-1.2 1.1-1.2 1.8 0 .5.5 1.3 1 1.7a2 2 0 0 0 2.8-.7c1-1.7-.8-3.7-2.6-2.8m8.3 0c-.7.3-1.3 1.2-1.3 1.7 0 2 2.7 2.8 3.8 1 1-1.6-.8-3.6-2.5-2.7m8.1 0c-.6.3-1.2 1.2-1.2 1.7 0 2 2.7 2.8 3.7 1 1-1.6-.8-3.6-2.5-2.7m8.2 0c-.7.3-1.3 1.2-1.3 1.7 0 2 2.7 2.8 3.8 1 1-1.6-.8-3.6-2.5-2.7m8.2 0a2 2 0 0 0-.3 3.5c1.7 1 3.7-1 2.8-2.7a2 2 0 0 0-2.5-.9m8.1 0c-1.5.7-1.6 2.6-.2 3.5 1 .6 2 .4 2.7-.7 1-1.4-.8-3.5-2.5-2.8m8.2 0c-1.5.7-1.7 2.6-.2 3.5.9.6 2 .4 2.7-.7 1-1.4-.9-3.5-2.5-2.8m8.1 0c-1 .5-1.5 1.6-1 2.6.5 1.1 1.8 1.6 2.7 1 1.5-.9 1.4-2.9-.3-3.6-.6-.2-.7-.2-1.4 0m57 14.2c-.7.4-1 1-1 1.7a2 2 0 0 0 1 1.8c1.7 1 3.8-1.2 2.5-2.8-.5-.5-1.3-1-1.7-1l-.7.3m8.1 0c-.7.4-1.1 1-1.1 1.7a2 2 0 0 0 1 1.8c1.8 1 3.9-1.2 2.5-2.8-.4-.5-1.2-1-1.6-1l-.8.3m7.4.1c-1.3.7-1.3 2.8 0 3.4 1 .6 2.3.2 2.7-.6.5-1 .2-2.3-.7-2.8a2.5 2.5 0 0 0-2 0m-121.9.1a14 14 0 0 0-11.2 8 13.7 13.6 0 0 0 0 11.2 13.8 13.6 0 0 0 9.6 7.6c5.7 1 11.5-1.4 14.7-6.1a12 12 0 0 0 2-7.6 10 9.9 0 0 0-.6-3.7 13.8 13.6 0 0 0-12.4-9.3h-2m84.1.7a14 13.9 0 0 0-10 8.1 14 13.8 0 0 0-.2 10 14.2 14.1 0 0 0 6.8 7.3 14.2 14 0 0 0 8.8 1.1 13.3 13.1 0 0 0 7.1-3.8 13.4 13.3 0 0 0 3.5-13 13.8 13.6 0 0 0-10.5-9.7 21 20.8 0 0 0-5.4 0m-84.6 7.2a6 6 0 0 0-4.4 4.7 6 5.9 0 0 0 3.3 6.3c1 .5 1.1.5 2.7.5 1.5 0 1.7 0 2.5-.4a6 5.9 0 0 0 2.8-2.6c1.3-2.5.9-5.2-1.2-7a6 6 0 0 0-5.7-1.5m85.3 0a5.8 5.8 0 0 0-3.7 3.2c-1.4 3-.1 6.4 3 7.8.9.5 1.1.5 2.5.5s1.5 0 2.5-.5a6 6 0 0 0 3.4-4.4 6 5.9 0 0 0-3.4-6.2 6.2 6.2 0 0 0-4.3-.4" fill="#040404" fill-rule="evenodd" class="currentLayer"/>
</svg>