<?xml version="1.0" standalone="no"?>
<!DOCTYPE svg PUBLIC "-//W3C//DTD SVG 20010904//EN"
 "http://www.w3.org/TR/2001/REC-SVG-20010904/DTD/svg10.dtd">
<svg version="1.0" xmlns="http://www.w3.org/2000/svg"
 width="808.000000pt" height="808.000000pt" viewBox="0 0 808.000000 808.000000"
 preserveAspectRatio="xMidYMid meet">
<metadata>
Created by potrace 1.14, written by Peter Selinger 2001-2017
</metadata>
<g transform="translate(0.000000,808.000000) scale(0.100000,-0.100000)"
fill="#000000" stroke="none">
<path d="M2915 7549 c-724 -69 -1409 -440 -1872 -1013 -97 -121 -224 -316
-291 -447 -59 -115 -147 -327 -139 -335 2 -2 403 -3 890 -2 l886 3 -80 128
c-43 71 -79 132 -79 136 0 4 95 -17 210 -47 116 -30 212 -53 214 -51 1 2 83
307 181 677 98 370 180 670 182 668 3 -3 223 -1377 223 -1393 0 -9 58 12 507
191 268 106 499 197 513 201 15 4 -105 -123 -314 -333 l-339 -340 34 -11 c19
-5 117 -33 218 -60 101 -28 186 -53 189 -55 8 -9 -13 -13 -258 -52 -129 -20
-237 -38 -239 -40 -4 -4 66 -90 298 -369 82 -99 148 -181 147 -183 -2 -1 -158
49 -346 113 -189 63 -345 115 -348 115 -6 0 8 -400 15 -424 11 -40 -20 -4
-142 162 -69 94 -129 172 -133 172 -4 0 -60 -271 -126 -603 -65 -331 -122
-605 -125 -609 -4 -4 -36 257 -71 580 l-65 587 -277 3 -276 2 -6 -27 c-3 -16
-67 -449 -141 -963 -162 -1118 -220 -1517 -242 -1669 -11 -76 -23 -121 -36
-137 l-18 -24 -378 0 -378 0 -21 23 c-12 13 -22 32 -22 42 0 17 364 2667 375
2728 l5 27 -390 0 c-305 0 -390 -3 -390 -12 0 -7 -103 -996 -230 -2197 -126
-1202 -228 -2185 -227 -2186 1 -1 1156 2 2567 6 2530 6 2567 7 2692 27 500 82
924 267 1311 574 180 143 417 394 532 563 l34 50 -212 1262 c-117 695 -214
1263 -217 1263 -3 0 -158 -480 -343 -1067 -186 -587 -345 -1076 -354 -1085
-15 -17 -44 -18 -365 -18 -326 0 -349 1 -367 19 -10 10 -92 237 -190 532 -476
1418 -549 1633 -554 1619 -3 -8 -75 -489 -160 -1068 -109 -738 -160 -1060
-172 -1078 l-16 -24 -386 2 -386 3 -18 25 c-18 24 -14 53 159 1307 97 705 180
1284 184 1288 6 6 72 -21 612 -254 142 -62 260 -111 262 -109 2 2 -179 202
-401 443 -223 241 -405 441 -405 444 0 4 168 46 373 95 204 49 375 91 379 95
4 3 -149 53 -338 110 -190 58 -347 108 -349 112 -3 4 15 25 40 48 l45 42 495
-3 c444 -3 496 -5 511 -20 9 -9 51 -128 94 -265 376 -1203 563 -1800 569
-1810 3 -7 50 137 103 320 54 183 190 649 303 1037 114 388 213 712 221 720
13 13 86 15 534 15 508 0 520 0 540 -20 17 -18 40 -147 165 -930 80 -501 149
-918 153 -928 4 -10 95 810 201 1823 107 1012 192 1843 189 1846 -19 19 -4929
31 -5123 13z"/>
</g>
</svg>
